# xmcd
#
# Track frame offsets:
#	150
#	14698
#	31888
#	47170
#	62444
#	78900
#	94421
#	109960
#	124343
#	138779
#	152935
#	166097
#	181991
#	197144
#
# Disc length: 2836 seconds
#
# Revision: 1
# Processed by: cddbd v1.5.2PL0 Copyright (c) Steve Scherf et al.
# Submitted via: EZCDAudioConverter 5.5.0.1
#
DISCID=ba0b120e
DTITLE=Abril - Que te den!
DYEAR=2003
DGENRE=Pop
TTITLE0=A que te Ponga
TTITLE1=Lo Siento
TTITLE2=No Existes
TTITLE3=Que te Den
TTITLE4=Óyelo - Reptop Remix
TTITLE5=Arrímate - Paul B's Closer
TTITLE6=Que te den
TTITLE7=Baila Descalza
TTITLE8=Pensamiento
TTITLE9=Arrímate
TTITLE10=Eres mi debilidad
TTITLE11=Que viene la bulla
TTITLE12=Esa Fiesta, Oe!!
TTITLE13=Lo Bueno y Lo Malo
EXTD=
EXTT0=
EXTT1=
EXTT2=
EXTT3=
EXTT4=
EXTT5=
EXTT6=
EXTT7=
EXTT8=
EXTT9=
EXTT10=
EXTT11=
EXTT12=
EXTT13=
PLAYORDER=
